<?xml version="1.0" standalone="no"?>
<!DOCTYPE svg PUBLIC "-//W3C//DTD SVG 20010904//EN"
 "http://www.w3.org/TR/2001/REC-SVG-20010904/DTD/svg10.dtd">
<svg version="1.0" xmlns="http://www.w3.org/2000/svg"
 width="500.000000pt" height="500.000000pt" viewBox="0 0 500.000000 500.000000"
 preserveAspectRatio="xMidYMid meet">
<metadata>
Created by potrace 1.11, written by Peter Selinger 2001-2013
</metadata>
<g transform="translate(0.000000,500.000000) scale(0.100000,-0.100000)"
fill="#000000" stroke="none">
<path d="M0 2500 l0 -2500 2500 0 2500 0 0 2500 0 2500 -2500 0 -2500 0 0
-2500z m3005 2131 c463 -71 879 -237 1213 -484 45 -34 81 -67 80 -74 -3 -13
-657 -881 -670 -889 -4 -3 -40 17 -80 44 -242 163 -514 275 -809 334 -152 30
-403 32 -493 5 -81 -25 -131 -61 -156 -111 -39 -82 -14 -181 58 -228 90 -59
193 -87 557 -153 285 -51 432 -82 572 -120 243 -66 480 -166 638 -269 107 -70
261 -218 321 -307 156 -235 204 -514 149 -864 -45 -282 -156 -504 -350 -700
-258 -261 -590 -407 -1070 -471 -177 -24 -581 -24 -795 0 -486 53 -898 193
-1247 426 -112 74 -274 201 -281 220 -4 11 647 940 658 940 5 0 37 -25 72 -55
258 -226 600 -388 948 -450 147 -26 407 -32 509 -11 184 37 291 122 291 231 0
44 -32 107 -71 140 -89 75 -236 120 -634 195 -473 88 -720 158 -952 270 -164
78 -282 161 -390 273 -203 210 -293 447 -293 771 0 269 60 475 200 690 67 102
229 268 338 346 222 158 529 270 862 315 165 22 643 14 825 -14z"/>
</g>
</svg>
